<?xml version="1.0" encoding="utf-8"?>
<!-- Generator: Adobe Illustrator 16.0.0, SVG Export Plug-In . SVG Version: 6.00 Build 0)  -->
<!DOCTYPE svg PUBLIC "-//W3C//DTD SVG 1.1//EN" "http://www.w3.org/Graphics/SVG/1.1/DTD/svg11.dtd">
<svg version="1.1" id="Слой_1" xmlns="http://www.w3.org/2000/svg" xmlns:xlink="http://www.w3.org/1999/xlink" x="0px" y="0px"
	 width="512px" height="512px" viewBox="0 0 512 512" enable-background="new 0 0 512 512" xml:space="preserve">
<g id="_x31_6_machine_x2C__generator_x2C__paper_x2C__bulb_x2C__idea_x2C__creative_x2C__computer_1_">
	<g>
		<g>
			<path fill="#E6E9ED" d="M156.072,4.186c-22.063,0-39.972,17.909-39.972,39.972v39.971v71.949v7.994h175.874v-7.994V76.134V44.157
				c0-22.063,17.909-39.972,39.972-39.972H156.072z"/>
		</g>
		<g>
			<path fill="#E6E9ED" d="M451.86,347.937v31.977c0,22.063-17.909,39.972-39.972,39.972s-39.972-17.909-39.972-39.972v-39.972
				l15.988,7.995l15.988-7.995l15.989,7.995l15.988-7.995L451.86,347.937z"/>
		</g>
		<g>
			<path fill="#CCD1D9" d="M291.974,44.157c0-22.063,17.909-39.972,39.972-39.972s39.972,17.909,39.972,39.972v295.784v39.972
				c0,22.063,17.909,39.972,39.972,39.972h-71.949V283.982c0-8.791-7.198-15.989-15.988-15.989c8.79,0,15.988-7.194,15.988-15.984
				v-79.943c0-8.79-7.198-15.988-15.988-15.988h-31.978V76.134V44.157z"/>
		</g>
		<g opacity="0.2">
			<g>
				<path d="M331.945,20.174c22.063,0,39.972,17.909,39.972,39.972V44.157c0-22.063-17.909-39.972-39.972-39.972
					s-39.972,17.909-39.972,39.972v15.988C291.974,38.083,309.883,20.174,331.945,20.174z"/>
			</g>
		</g>
		<g opacity="0.2">
			<g>
				<path d="M411.889,403.896c-22.063,0-39.972-17.909-39.972-39.972v15.988c0,22.063,17.909,39.972,39.972,39.972
					s39.972-17.909,39.972-39.972v-15.988C451.86,385.987,433.951,403.896,411.889,403.896z"/>
			</g>
		</g>
		<g>
			<path fill="#FFFFFF" d="M124.094,84.128V44.157c0-22.063,17.909-39.972,39.972-39.972h-7.994
				c-22.063,0-39.972,17.909-39.972,39.972v39.971v71.949h7.994V84.128z"/>
		</g>
		<g opacity="0.2">
			<path d="M291.974,84.128V44.157c0-22.063,17.909-39.972,39.972-39.972h-7.994c-22.063,0-39.972,17.909-39.972,39.972v39.971
				v71.949v7.994h7.994v-7.994V84.128z"/>
		</g>
		<g>
			<path fill="#967ADC" d="M100.112,156.077H116.1v7.994h175.874v-7.994h31.978l-23.983,23.983H76.128
				c-3.841,0-7.354,1.358-10.149,3.677l22.703-22.789C91.555,157.92,95.63,156.077,100.112,156.077z"/>
		</g>
		<g opacity="0.3">
			<g>
				<path fill="#FFFFFF" d="M77.635,180.06l19.041-19.111c2.873-3.029,6.948-4.872,11.43-4.872h-7.994
					c-4.481,0-8.557,1.843-11.43,4.872l-22.703,22.789c2.795-2.319,6.308-3.677,10.149-3.677H77.635z"/>
			</g>
		</g>
		<g>
			<path fill="#B8A5F2" d="M315.957,196.049c0-8.791-7.198-15.989-15.989-15.989l23.983-23.983c8.79,0,15.988,7.198,15.988,15.988
				L315.957,196.049z"/>
		</g>
		<g>
			<path fill="#A0D468" d="M299.968,180.06c8.791,0,15.989,7.198,15.989,15.989v79.938c0,8.791-7.198,15.989-15.989,15.989H112.103
				H76.128c-8.791,0-15.988-7.198-15.988-15.989v-79.938c0-3.997,1.437-7.597,3.919-10.392l1.92-1.92
				c2.795-2.319,6.308-3.677,10.149-3.677H299.968z"/>
		</g>
		<g opacity="0.4">
			<path fill="#FFFFFF" d="M68.134,275.987v-79.938c0-3.997,1.437-7.597,3.919-10.392l1.921-1.92
				c2.795-2.319,6.308-3.677,10.148-3.677h-7.994c-3.841,0-7.354,1.358-10.149,3.677l-1.92,1.92
				c-2.482,2.795-3.919,6.395-3.919,10.392v79.938c0,8.791,7.198,15.989,15.988,15.989h7.994
				C75.333,291.977,68.134,284.778,68.134,275.987z"/>
		</g>
		<g opacity="0.2">
			<path d="M307.963,196.049v79.938c0,3.997-1.437,7.604-3.919,10.399l-1.921,1.92c-2.795,2.312-6.308,3.67-10.149,3.67h7.994
				c3.842,0,7.354-1.358,10.149-3.67l1.921-1.92c2.482-2.795,3.919-6.402,3.919-10.399v-79.938c0-8.791-7.198-15.989-15.989-15.989
				h-7.994C300.765,180.06,307.963,187.258,307.963,196.049z"/>
		</g>
		<g>
			<path fill="#AC92EC" d="M256,331.947c6.635,0,11.991,5.355,11.991,11.992c0,6.636-5.355,11.991-11.991,11.991
				c-6.636,0-11.992-5.355-11.992-11.991C244.009,337.303,249.364,331.947,256,331.947z"/>
		</g>
		<g>
			<path fill="#FFCE54" d="M256,355.931c6.635,0,11.991-5.355,11.991-11.991c0-6.637-5.355-11.992-11.991-11.992
				c-6.636,0-11.992,5.355-11.992,11.992C244.009,350.575,249.364,355.931,256,355.931z M256,315.959
				c15.426,0,27.979,12.554,27.979,27.98c0,15.426-12.553,27.979-27.979,27.979c-15.427,0-27.98-12.554-27.98-27.979
				C228.02,328.513,240.574,315.959,256,315.959z"/>
		</g>
		<g>
			<path fill="#AC92EC" d="M112.103,331.947c6.636,0,11.991,5.355,11.991,11.992c0,6.636-5.355,11.991-11.991,11.991
				s-11.991-5.355-11.991-11.991C100.112,337.303,105.467,331.947,112.103,331.947z"/>
		</g>
		<g opacity="0.3">
			<path fill="#FFFFFF" d="M108.106,343.939c0-5.23,3.341-9.618,7.994-11.258c-1.257-0.453-2.592-0.734-3.997-0.734
				c-6.636,0-11.991,5.355-11.991,11.992c0,6.636,5.355,11.991,11.991,11.991c1.405,0,2.74-0.281,3.997-0.733
				C111.447,353.558,108.106,349.17,108.106,343.939z"/>
		</g>
		<g opacity="0.3">
			<path fill="#FFFFFF" d="M252.003,343.939c0-5.23,3.341-9.618,7.994-11.258c-1.257-0.453-2.592-0.734-3.997-0.734
				c-6.636,0-11.992,5.355-11.992,11.992c0,6.636,5.355,11.991,11.992,11.991c1.405,0,2.74-0.281,3.997-0.733
				C255.344,353.558,252.003,349.17,252.003,343.939z"/>
		</g>
		<g>
			<path fill="#FFCE54" d="M84.123,343.939c0-15.427,12.554-27.98,27.98-27.98c15.426,0,27.98,12.554,27.98,27.98
				c0,15.426-12.554,27.979-27.98,27.979C96.676,371.919,84.123,359.365,84.123,343.939z M124.094,343.939
				c0-6.637-5.355-11.992-11.991-11.992s-11.991,5.355-11.991,11.992c0,6.636,5.355,11.991,11.991,11.991
				S124.094,350.575,124.094,343.939z"/>
		</g>
		<g opacity="0.5">
			<g>
				<path fill="#FFFFFF" d="M92.117,343.939c0-14.053,10.461-25.607,23.983-27.574c-1.312-0.188-2.623-0.406-3.997-0.406
					c-15.427,0-27.98,12.554-27.98,27.98c0,15.426,12.554,27.979,27.98,27.979c1.374,0,2.686-0.218,3.997-0.405
					C102.579,369.562,92.117,358.008,92.117,343.939z"/>
			</g>
		</g>
		<g opacity="0.2">
			<g>
				<path d="M132.088,343.939c0,14.068-10.461,25.622-23.982,27.574c1.312,0.188,2.623,0.405,3.997,0.405
					c15.426,0,27.98-12.554,27.98-27.979c0-15.427-12.554-27.98-27.98-27.98c-1.374,0-2.686,0.219-3.997,0.406
					C121.627,318.332,132.088,329.887,132.088,343.939z"/>
			</g>
		</g>
		<g opacity="0.2">
			<g>
				<path d="M275.985,343.939c0,14.068-10.461,25.622-23.982,27.574c1.312,0.188,2.624,0.405,3.998,0.405
					c15.426,0,27.979-12.554,27.979-27.979c0-15.427-12.553-27.98-27.979-27.98c-1.374,0-2.686,0.219-3.998,0.406
					C265.524,318.332,275.985,329.887,275.985,343.939z"/>
			</g>
		</g>
		<g opacity="0.5">
			<g>
				<path fill="#FFFFFF" d="M236.014,343.939c0-14.053,10.462-25.607,23.983-27.574c-1.312-0.188-2.623-0.406-3.997-0.406
					c-15.427,0-27.98,12.554-27.98,27.98c0,15.426,12.554,27.979,27.98,27.979c1.374,0,2.685-0.218,3.997-0.405
					C246.476,369.562,236.014,358.008,236.014,343.939z"/>
			</g>
		</g>
		<g>
			<polygon fill="#A0D468" points="291.974,483.84 84.123,483.84 84.123,395.902 112.103,395.902 291.974,395.902 			"/>
		</g>
		<g>
			<path fill="#AC92EC" d="M299.968,291.977H112.103H76.128c-8.791,0-15.988,7.197-15.988,15.988v183.869
				c0,8.79,7.198,15.988,15.988,15.988h223.839c4.716,0,9.033-2.076,11.992-5.434c2.475-2.795,3.997-6.48,3.997-10.555v-95.932
				v-87.938C315.957,299.174,308.759,291.977,299.968,291.977z M256,315.959c15.426,0,27.979,12.554,27.979,27.98
				c0,15.426-12.553,27.979-27.979,27.979c-15.427,0-27.98-12.554-27.98-27.979C228.02,328.513,240.574,315.959,256,315.959z
				 M112.103,315.959c15.426,0,27.98,12.554,27.98,27.98c0,15.426-12.554,27.979-27.98,27.979c-15.427,0-27.98-12.554-27.98-27.979
				C84.123,328.513,96.676,315.959,112.103,315.959z M291.974,483.84H84.123v-87.938h27.98h179.871V483.84z"/>
		</g>
		<g opacity="0.3">
			<g>
				<path fill="#FFFFFF" d="M68.134,491.834V307.965c0-8.791,7.198-15.988,15.988-15.988h-7.994
					c-8.791,0-15.988,7.197-15.988,15.988v183.869c0,8.79,7.198,15.988,15.988,15.988h7.994
					C75.333,507.822,68.134,500.624,68.134,491.834z"/>
			</g>
		</g>
		<g opacity="0.2">
			<g>
				<path d="M307.963,307.965v183.869c0,8.79-7.198,15.988-15.989,15.988h7.994c8.791,0,15.989-7.198,15.989-15.988V307.965
					c0-8.791-7.198-15.988-15.989-15.988h-7.994C300.765,291.977,307.963,299.174,307.963,307.965z"/>
			</g>
		</g>
		<g>
			<path fill="#656D78" d="M335.146,479.28l-23.187,23.108c2.475-2.795,3.997-6.48,3.997-10.555v-95.932v-87.938
				c0-8.791-7.198-15.988-15.989-15.988c8.791,0,15.989-7.198,15.989-15.989v-79.938l23.982-23.983v79.943
				c0,8.79-7.198,15.984-15.988,15.984c8.79,0,15.988,7.198,15.988,15.989v135.902v47.966c0,4.403-1.757,8.4-4.715,11.273
				L335.146,479.28z"/>
		</g>
		<g>
			<path fill="#967ADC" d="M335.146,479.28l-23.187,23.108c2.475-2.795,3.997-6.48,3.997-10.555v-95.932v-87.938
				c0-8.791-7.198-15.988-15.989-15.988c8.791,0,15.989-7.198,15.989-15.989v-79.938l23.982-23.983v79.943
				c0,8.79-7.198,15.984-15.988,15.984c8.79,0,15.988,7.198,15.988,15.989v135.902v47.966c0,4.403-1.757,8.4-4.715,11.273
				L335.146,479.28z"/>
		</g>
		<g opacity="0.4">
			<rect x="84.123" y="395.902" fill="#FFFFFF" width="7.995" height="87.938"/>
		</g>
		<g opacity="0.2">
			<rect x="283.979" y="395.902" width="7.994" height="87.938"/>
		</g>
		<g opacity="0.2">
			<rect x="116.1" y="156.077" width="167.879" height="7.994"/>
		</g>
	</g>
	<g>
		<g>
			<polygon fill="#AAB2BD" points="204.038,140.089 196.043,140.089 188.048,132.094 188.048,124.1 188.048,108.111 
				220.026,108.111 220.026,124.1 220.026,132.094 212.032,140.089 			"/>
		</g>
		<g opacity="0.4">
			<polygon fill="#FFFFFF" points="196.043,132.094 204.038,140.089 196.043,140.089 188.048,132.094 188.048,124.1 
				188.048,108.111 196.043,108.111 196.043,124.1 			"/>
		</g>
		<g opacity="0.3">
			<polygon points="212.032,132.094 204.038,140.089 212.032,140.089 220.026,132.094 220.026,124.1 220.026,108.111 
				212.032,108.111 212.032,124.1 			"/>
		</g>
		<g>
			<path fill="#FFCE54" d="M220.026,103.716c9.517-5.598,15.988-15.746,15.988-27.582c0-17.667-14.31-31.977-31.977-31.977
				c-17.667,0-31.978,14.31-31.978,31.977c0,11.835,6.479,21.984,15.988,27.582v4.396h31.978V103.716z"/>
		</g>
		<g opacity="0.5">
			<path fill="#FFFFFF" d="M180.054,76.134c0,18.323,7.994,27.582,7.994,27.582c-9.509-5.598-15.988-15.746-15.988-27.582
				c0-17.667,14.31-31.977,31.978-31.977c1.374,0,2.67,0.234,3.997,0.406C192.28,46.546,180.054,59.833,180.054,76.134z"/>
		</g>
		<g opacity="0.3">
			<path d="M228.02,76.134c0,18.323-7.994,27.582-7.994,27.582c9.509-5.598,15.988-15.746,15.988-27.582
				c0-17.667-14.31-31.977-31.977-31.977c-1.374,0-2.67,0.234-3.998,0.406C215.794,46.546,228.02,59.833,228.02,76.134z"/>
		</g>
	</g>
	<g id="_x31_6_machine_x2C__generator_x2C__paper_x2C__bulb_x2C__idea_x2C__creative_x2C__computer">
		<g>
			<path fill="#3A3847" d="M164.3,359.928c-2.206,0-4.036-1.78-4.036-3.997c0-2.202,1.749-3.997,3.958-3.997h0.078
				c2.209,0,3.997,1.795,3.997,3.997C168.297,358.147,166.509,359.928,164.3,359.928z"/>
		</g>
		<g>
			<path fill="#3A3847" d="M184.286,359.928c-2.205,0-4.036-1.78-4.036-3.997c0-2.202,1.749-3.997,3.958-3.997h0.078
				c2.209,0,3.997,1.795,3.997,3.997C188.283,358.147,186.495,359.928,184.286,359.928z"/>
		</g>
		<g>
			<path fill="#3A3847" d="M204.275,359.928c-2.206,0-4.036-1.78-4.036-3.997c0-2.202,1.749-3.997,3.958-3.997h0.078
				c2.209,0,3.997,1.795,3.997,3.997C208.272,358.147,206.485,359.928,204.275,359.928z"/>
		</g>
		<g>
			<path fill="#3A3847" d="M164.3,335.945c-2.206,0-4.036-1.78-4.036-3.998c0-2.201,1.749-3.997,3.958-3.997h0.078
				c2.209,0,3.997,1.796,3.997,3.997C168.297,334.165,166.509,335.945,164.3,335.945z"/>
		</g>
		<g>
			<path fill="#3A3847" d="M184.286,335.945c-2.205,0-4.036-1.78-4.036-3.998c0-2.201,1.749-3.997,3.958-3.997h0.078
				c2.209,0,3.997,1.796,3.997,3.997C188.283,334.165,186.495,335.945,184.286,335.945z"/>
		</g>
		<g>
			<path fill="#3A3847" d="M204.275,335.945c-2.206,0-4.036-1.78-4.036-3.998c0-2.201,1.749-3.997,3.958-3.997h0.078
				c2.209,0,3.997,1.796,3.997,3.997C208.272,334.165,206.485,335.945,204.275,335.945z"/>
		</g>
		<g>
			<path fill="#3A3847" d="M299.968,511.819H76.128c-11.02,0-19.985-8.962-19.985-19.985V307.965
				c0-11.023,8.966-19.986,19.985-19.986h223.839c11.016,0,19.986,8.963,19.986,19.986v183.869
				C319.954,502.857,310.983,511.819,299.968,511.819z M76.128,295.974c-6.612,0-11.991,5.387-11.991,11.991v183.869
				c0,6.62,5.379,11.991,11.991,11.991h223.839c6.613,0,11.992-5.371,11.992-11.991V307.965c0-6.604-5.379-11.991-11.992-11.991
				H76.128z"/>
		</g>
		<g>
			<path fill="#3A3847" d="M335.24,483.137c-1.03,0-2.054-0.391-2.834-1.171c-1.554-1.562-1.554-4.091,0.008-5.652
				c2.271-2.265,3.528-5.277,3.528-8.463V283.982c0-6.605-5.379-11.992-11.991-11.992c-2.209,0-3.997-1.779-3.997-3.997
				c0-2.201,1.788-3.997,3.997-3.997c11.016,0,19.985,8.963,19.985,19.986v183.868c0,5.324-2.084,10.353-5.878,14.131
				C337.277,482.746,336.263,483.137,335.24,483.137z"/>
		</g>
		<g>
			<path fill="#3A3847" d="M299.968,295.989H76.128c-11.02,0-19.985-8.963-19.985-19.986v-79.946
				c0-11.023,8.966-19.986,19.985-19.986h223.839c11.016,0,19.986,8.963,19.986,19.986v79.946
				C319.954,287.026,310.983,295.989,299.968,295.989z M76.128,184.065c-6.612,0-11.991,5.379-11.991,11.992v79.946
				c0,6.604,5.379,11.991,11.991,11.991h223.839c6.613,0,11.992-5.387,11.992-11.991v-79.946c0-6.613-5.379-11.992-11.992-11.992
				H76.128z"/>
		</g>
		<g>
			<path fill="#3A3847" d="M323.951,271.99c-2.209,0-3.997-1.779-3.997-3.997c0-2.201,1.788-3.997,3.997-3.997
				c6.612,0,11.991-5.375,11.991-11.987v-79.943c0-6.612-5.379-11.991-11.991-11.991h-31.978c-2.209,0-3.997-1.788-3.997-3.997
				c0-2.209,1.788-3.997,3.997-3.997h31.978c11.016,0,19.985,8.962,19.985,19.985v79.943
				C343.937,263.032,334.967,271.99,323.951,271.99z"/>
		</g>
		<g>
			<path fill="#3A3847" d="M88.651,164.938c-1.003,0-2.006-0.375-2.783-1.132c-1.585-1.538-1.624-4.067-0.086-5.652
				c3.806-3.919,8.896-6.074,14.33-6.074H116.1c2.209,0,3.997,1.788,3.997,3.997c0,2.209-1.788,3.997-3.997,3.997h-15.988
				c-3.256,0-6.305,1.296-8.592,3.654C90.735,164.532,89.693,164.938,88.651,164.938z"/>
		</g>
		<g>
			<path fill="#3A3847" d="M315.957,200.054c-1.022,0-2.046-0.391-2.826-1.171c-1.562-1.562-1.562-4.091,0-5.652l23.983-23.991
				c1.561-1.561,4.09-1.561,5.651,0c1.562,1.562,1.562,4.091,0,5.652l-23.982,23.991
				C318.003,199.663,316.979,200.054,315.957,200.054z"/>
		</g>
		<g>
			<path fill="#3A3847" d="M299.968,184.065c-1.022,0-2.045-0.39-2.826-1.171c-1.561-1.562-1.561-4.091,0-5.652l23.983-23.991
				c1.562-1.562,4.091-1.562,5.652,0s1.562,4.091,0,5.652l-23.983,23.991C302.014,183.675,300.991,184.065,299.968,184.065z"/>
		</g>
		<g>
			<path fill="#3A3847" d="M180.054,216.034h-79.942c-2.21,0-3.998-1.788-3.998-3.997c0-2.209,1.788-3.997,3.998-3.997h79.942
				c2.209,0,3.997,1.788,3.997,3.997C184.051,214.247,182.264,216.034,180.054,216.034z"/>
		</g>
		<g>
			<path fill="#3A3847" d="M132.088,240.025h-31.977c-2.21,0-3.998-1.788-3.998-3.997s1.788-3.997,3.998-3.997h31.977
				c2.21,0,3.997,1.788,3.997,3.997S134.298,240.025,132.088,240.025z"/>
		</g>
		<g>
			<path fill="#3A3847" d="M156.072,264.012h-31.978c-2.209,0-3.997-1.783-3.997-3.993s1.788-3.997,3.997-3.997h31.978
				c2.209,0,3.997,1.787,3.997,3.997S158.281,264.012,156.072,264.012z"/>
		</g>
		<g>
			<path fill="#3A3847" d="M164.066,240.025h-15.989c-2.209,0-3.997-1.788-3.997-3.997s1.788-3.997,3.997-3.997h15.989
				c2.209,0,3.997,1.788,3.997,3.997S166.275,240.025,164.066,240.025z"/>
		</g>
		<g>
			<path fill="#3A3847" d="M212.032,216.034h-15.989c-2.209,0-3.997-1.788-3.997-3.997c0-2.209,1.788-3.997,3.997-3.997h15.989
				c2.209,0,3.997,1.788,3.997,3.997C216.029,214.247,214.241,216.034,212.032,216.034z"/>
		</g>
		<g>
			<path fill="#3A3847" d="M267.991,240.025h-15.988c-2.209,0-3.997-1.788-3.997-3.997s1.788-3.997,3.997-3.997h15.988
				c2.209,0,3.997,1.788,3.997,3.997S270.2,240.025,267.991,240.025z"/>
		</g>
		<g>
			<path fill="#3A3847" d="M108.106,264.012h-7.994c-2.21,0-3.998-1.783-3.998-3.993s1.788-3.997,3.998-3.997h7.994
				c2.209,0,3.997,1.787,3.997,3.997S110.315,264.012,108.106,264.012z"/>
		</g>
		<g>
			<path fill="#3A3847" d="M267.991,216.034H228.02c-2.209,0-3.997-1.788-3.997-3.997c0-2.209,1.788-3.997,3.997-3.997h39.971
				c2.209,0,3.997,1.788,3.997,3.997C271.988,214.247,270.2,216.034,267.991,216.034z"/>
		</g>
		<g>
			<path fill="#3A3847" d="M236.014,240.025h-55.96c-2.209,0-3.997-1.788-3.997-3.997s1.788-3.997,3.997-3.997h55.96
				c2.21,0,3.998,1.788,3.998,3.997S238.224,240.025,236.014,240.025z"/>
		</g>
		<g>
			<path fill="#3A3847" d="M267.991,264.012H172.06c-2.209,0-3.997-1.783-3.997-3.993s1.788-3.997,3.997-3.997h95.931
				c2.209,0,3.997,1.787,3.997,3.997S270.2,264.012,267.991,264.012z"/>
		</g>
		<g>
			<path fill="#3A3847" d="M112.103,375.916c-17.632,0-31.978-14.333-31.978-31.977c0-17.629,14.346-31.978,31.978-31.978
				s31.977,14.349,31.977,31.978C144.08,361.583,129.735,375.916,112.103,375.916z M112.103,319.956
				c-13.225,0-23.983,10.758-23.983,23.983c0,13.225,10.758,23.982,23.983,23.982c13.225,0,23.982-10.758,23.982-23.982
				C136.085,330.714,125.328,319.956,112.103,319.956z"/>
		</g>
		<g>
			<path fill="#3A3847" d="M112.103,359.928c-8.818,0-15.989-7.167-15.989-15.988c0-8.807,7.17-15.989,15.989-15.989
				c8.818,0,15.988,7.183,15.988,15.989C128.091,352.761,120.921,359.928,112.103,359.928z M112.103,335.945
				c-4.407,0-7.994,3.591-7.994,7.994c0,4.418,3.587,7.994,7.994,7.994s7.994-3.576,7.994-7.994
				C120.097,339.536,116.51,335.945,112.103,335.945z"/>
		</g>
		<g>
			<path fill="#3A3847" d="M256,375.916c-17.632,0-31.978-14.333-31.978-31.977c0-17.629,14.345-31.978,31.978-31.978
				c17.627,0,31.976,14.349,31.976,31.978C287.977,361.583,273.628,375.916,256,375.916z M256,319.956
				c-13.226,0-23.983,10.758-23.983,23.983c0,13.225,10.758,23.982,23.983,23.982c13.224,0,23.982-10.758,23.982-23.982
				C279.982,330.714,269.225,319.956,256,319.956z"/>
		</g>
		<g>
			<path fill="#3A3847" d="M256,359.928c-8.818,0-15.989-7.167-15.989-15.988c0-8.807,7.17-15.989,15.989-15.989
				c8.813,0,15.988,7.183,15.988,15.989C271.988,352.761,264.813,359.928,256,359.928z M256,335.945
				c-4.407,0-7.995,3.591-7.995,7.994c0,4.418,3.587,7.994,7.995,7.994c4.407,0,7.994-3.576,7.994-7.994
				C263.994,339.536,260.407,335.945,256,335.945z"/>
		</g>
		<g>
			<path fill="#3A3847" d="M291.974,487.836H84.123c-2.209,0-3.997-1.779-3.997-3.996v-87.938c0-2.202,1.788-3.998,3.997-3.998
				h207.851c2.21,0,3.998,1.796,3.998,3.998v87.938C295.972,486.057,294.184,487.836,291.974,487.836z M88.12,479.842h199.856
				v-79.942H88.12V479.842z"/>
		</g>
		<g>
			<path fill="#3A3847" d="M108.106,471.848c-2.209,0-3.997-1.779-3.997-3.997v-15.988c0-2.202,1.788-3.997,3.997-3.997
				c2.209,0,3.997,1.795,3.997,3.997v15.988C112.103,470.068,110.315,471.848,108.106,471.848z"/>
		</g>
		<g>
			<path fill="#3A3847" d="M156.072,471.848c-2.21,0-3.997-1.779-3.997-3.997v-7.994c0-2.202,1.787-3.997,3.997-3.997
				c2.209,0,3.997,1.795,3.997,3.997v7.994C160.069,470.068,158.281,471.848,156.072,471.848z"/>
		</g>
		<g>
			<path fill="#3A3847" d="M124.094,471.848c-2.209,0-3.997-1.779-3.997-3.997v-55.96c0-2.201,1.788-3.997,3.997-3.997
				c2.209,0,3.997,1.796,3.997,3.997v55.96C128.091,470.068,126.304,471.848,124.094,471.848z"/>
		</g>
		<g>
			<path fill="#3A3847" d="M267.991,471.848c-2.209,0-3.997-1.779-3.997-3.997v-31.978c0-2.201,1.788-3.996,3.997-3.996
				s3.997,1.795,3.997,3.996v31.978C271.988,470.068,270.2,471.848,267.991,471.848z"/>
		</g>
		<g>
			<path fill="#3A3847" d="M172.06,471.848c-2.209,0-3.997-1.779-3.997-3.997v-47.966c0-2.201,1.788-3.997,3.997-3.997
				c2.209,0,3.997,1.796,3.997,3.997v47.966C176.057,470.068,174.27,471.848,172.06,471.848z"/>
		</g>
		<g>
			<path fill="#3A3847" d="M140.083,471.848c-2.209,0-3.998-1.779-3.998-3.997v-39.972c0-2.201,1.788-3.997,3.998-3.997
				s3.997,1.796,3.997,3.997v39.972C144.08,470.068,142.292,471.848,140.083,471.848z"/>
		</g>
		<g>
			<path fill="#3A3847" d="M188.048,471.848c-2.209,0-3.997-1.779-3.997-3.997v-15.988c0-2.202,1.788-3.997,3.997-3.997
				c2.21,0,3.998,1.795,3.998,3.997v15.988C192.046,470.068,190.258,471.848,188.048,471.848z"/>
		</g>
		<g>
			<path fill="#3A3847" d="M236.014,471.848c-2.209,0-3.997-1.779-3.997-3.997v-7.994c0-2.202,1.788-3.997,3.997-3.997
				c2.21,0,3.998,1.795,3.998,3.997v7.994C240.012,470.068,238.224,471.848,236.014,471.848z"/>
		</g>
		<g>
			<path fill="#3A3847" d="M204.038,471.848c-2.21,0-3.998-1.779-3.998-3.997v-55.96c0-2.201,1.788-3.997,3.998-3.997
				c2.209,0,3.997,1.796,3.997,3.997v55.96C208.035,470.068,206.247,471.848,204.038,471.848z"/>
		</g>
		<g>
			<path fill="#3A3847" d="M252.003,471.848c-2.209,0-3.997-1.779-3.997-3.997v-47.966c0-2.201,1.788-3.997,3.997-3.997
				s3.998,1.796,3.998,3.997v47.966C256,470.068,254.212,471.848,252.003,471.848z"/>
		</g>
		<g>
			<path fill="#3A3847" d="M220.026,471.848c-2.209,0-3.997-1.779-3.997-3.997v-39.972c0-2.201,1.788-3.997,3.997-3.997
				s3.997,1.796,3.997,3.997v39.972C224.023,470.068,222.235,471.848,220.026,471.848z"/>
		</g>
		<g>
			<path fill="#3A3847" d="M212.032,319.956h-55.96c-2.21,0-3.997-1.78-3.997-3.997c0-2.201,1.787-3.997,3.997-3.997h55.96
				c2.209,0,3.997,1.796,3.997,3.997C216.029,318.176,214.241,319.956,212.032,319.956z"/>
		</g>
		<g>
			<path fill="#3A3847" d="M212.032,375.916h-55.96c-2.21,0-3.997-1.779-3.997-3.997c0-2.201,1.787-3.997,3.997-3.997h55.96
				c2.209,0,3.997,1.796,3.997,3.997C216.029,374.137,214.241,375.916,212.032,375.916z"/>
		</g>
		<g>
			<path fill="#3A3847" d="M116.1,168.068c-2.209,0-3.997-1.788-3.997-3.997V44.149c0-2.209,1.788-3.997,3.997-3.997
				c2.209,0,3.997,1.788,3.997,3.997v119.922C120.097,166.281,118.309,168.068,116.1,168.068z"/>
		</g>
		<g>
			<path fill="#3A3847" d="M116.1,48.146c-2.209,0-3.997-1.788-3.997-3.997c0-24.241,19.724-43.969,43.969-43.969
				c2.209,0,3.997,1.788,3.997,3.997c0,2.209-1.788,3.997-3.997,3.997c-19.838,0-35.975,16.137-35.975,35.975
				C120.097,46.358,118.309,48.146,116.1,48.146z"/>
		</g>
		<g>
			<path fill="#3A3847" d="M371.917,383.91c-2.209,0-3.997-1.779-3.997-3.997V44.149c0-2.209,1.788-3.997,3.997-3.997
				s3.997,1.788,3.997,3.997v335.764C375.914,382.131,374.126,383.91,371.917,383.91z"/>
		</g>
		<g>
			<path fill="#3A3847" d="M451.86,383.91c-2.21,0-3.998-1.779-3.998-3.997v-31.977c0-2.202,1.788-3.997,3.998-3.997
				c2.209,0,3.996,1.795,3.996,3.997v31.977C455.856,382.131,454.069,383.91,451.86,383.91z"/>
		</g>
		<g>
			<path fill="#3A3847" d="M371.917,48.146c-2.209,0-3.997-1.788-3.997-3.997c0-19.838-16.137-35.975-35.975-35.975
				c-2.209,0-3.997-1.788-3.997-3.997c0-2.209,1.788-3.997,3.997-3.997c24.241,0,43.969,19.728,43.969,43.969
				C375.914,46.358,374.126,48.146,371.917,48.146z"/>
		</g>
		<g>
			<path fill="#3A3847" d="M291.974,168.068c-2.209,0-3.997-1.788-3.997-3.997V44.149c0-2.209,1.788-3.997,3.997-3.997
				c2.21,0,3.998,1.788,3.998,3.997v119.922C295.972,166.281,294.184,168.068,291.974,168.068z"/>
		</g>
		<g>
			<path fill="#3A3847" d="M291.974,48.146c-2.209,0-3.997-1.788-3.997-3.997c0-24.241,19.721-43.969,43.969-43.969
				c2.21,0,3.997,1.788,3.997,3.997c0,2.209-1.787,3.997-3.997,3.997c-19.837,0-35.974,16.137-35.974,35.975
				C295.972,46.358,294.184,48.146,291.974,48.146z"/>
		</g>
		<g>
			<path fill="#3A3847" d="M411.889,423.882c-24.249,0-43.969-19.72-43.969-43.969c0-2.201,1.788-3.997,3.997-3.997
				s3.997,1.796,3.997,3.997c0,19.846,16.137,35.975,35.975,35.975c2.209,0,3.997,1.796,3.997,3.997
				C415.886,422.102,414.098,423.882,411.889,423.882z"/>
		</g>
		<g>
			<path fill="#3A3847" d="M411.889,423.882c-2.21,0-3.997-1.78-3.997-3.997c0-2.201,1.787-3.997,3.997-3.997
				c19.837,0,35.974-16.129,35.974-35.975c0-2.201,1.788-3.997,3.998-3.997c2.209,0,3.996,1.796,3.996,3.997
				C455.856,404.162,436.129,423.882,411.889,423.882z"/>
		</g>
		<g>
			<path fill="#3A3847" d="M331.945,8.183H156.072c-2.21,0-3.997-1.788-3.997-3.997s1.787-3.997,3.997-3.997h175.874
				c2.21,0,3.997,1.788,3.997,3.997S334.155,8.183,331.945,8.183z"/>
		</g>
		<g>
			<path fill="#3A3847" d="M451.853,351.934c-0.602,0-1.211-0.125-1.78-0.422l-14.201-7.104l-14.2,7.104
				c-1.125,0.563-2.451,0.563-3.576,0l-14.201-7.104l-14.2,7.104c-1.124,0.563-2.451,0.563-3.575,0l-15.989-7.994
				c-1.975-0.983-2.779-3.389-1.788-5.355c0.992-1.983,3.381-2.795,5.364-1.796l14.2,7.104l14.201-7.104
				c1.124-0.562,2.451-0.562,3.575,0l14.201,7.104l14.2-7.104c1.125-0.562,2.452-0.562,3.576,0l15.988,7.994
				c1.976,1,2.771,3.389,1.788,5.372C454.733,351.121,453.319,351.934,451.853,351.934z"/>
		</g>
		<g>
			<path fill="#3A3847" d="M411.889,423.882h-71.949c-2.209,0-3.997-1.78-3.997-3.997c0-2.201,1.788-3.997,3.997-3.997h71.949
				c2.209,0,3.997,1.796,3.997,3.997C415.886,422.102,414.098,423.882,411.889,423.882z"/>
		</g>
		<g>
			<path fill="#3A3847" d="M311.96,506.386c-1.023,0-2.054-0.391-2.834-1.171c-1.554-1.562-1.554-4.091,0.008-5.652l23.155-23.124
				c1.562-1.562,4.091-1.562,5.652,0s1.562,4.091,0,5.652l-23.155,23.124C314.005,505.995,312.982,506.386,311.96,506.386z"/>
		</g>
		<g>
			<path fill="#3A3847" d="M64.071,189.616c-1.019,0-2.042-0.39-2.822-1.164c-1.562-1.561-1.569-4.091-0.008-5.652l24.584-24.67
				c1.562-1.569,4.091-1.562,5.652-0.016c1.562,1.561,1.569,4.091,0.008,5.652l-24.584,24.67
				C66.12,189.226,65.097,189.616,64.071,189.616z"/>
		</g>
		<g>
			<path fill="#3A3847" d="M291.974,168.068H116.1c-2.209,0-3.997-1.788-3.997-3.997c0-2.209,1.788-3.997,3.997-3.997h175.874
				c2.21,0,3.998,1.788,3.998,3.997C295.972,166.281,294.184,168.068,291.974,168.068z"/>
		</g>
		<g>
			<path fill="#3A3847" d="M220.026,112.108h-31.978c-2.209,0-3.997-1.788-3.997-3.997v-2.225
				c-9.918-6.66-15.992-17.854-15.992-29.752c0-19.837,16.141-35.974,35.979-35.974c19.837,0,35.974,16.137,35.974,35.974
				c0,11.898-6.07,23.093-15.989,29.752v2.225C224.023,110.321,222.235,112.108,220.026,112.108z M192.046,104.114h23.983v-0.438
				c0-1.421,0.757-2.74,1.987-3.458c8.767-5.098,14.001-14.1,14.001-24.084c0-15.426-12.553-27.98-27.979-27.98
				c-15.431,0-27.984,12.554-27.984,27.98c0,9.985,5.234,18.986,14.006,24.084c1.229,0.718,1.987,2.037,1.987,3.458V104.114z"/>
		</g>
		<g>
			<path fill="#3A3847" d="M212.032,144.086h-15.989c-1.062,0-2.077-0.422-2.826-1.171l-7.994-7.994
				c-0.75-0.75-1.171-1.764-1.171-2.826v-23.983c0-2.209,1.788-3.997,3.997-3.997h31.978c2.209,0,3.997,1.788,3.997,3.997v23.983
				c0,1.062-0.421,2.077-1.171,2.826l-7.994,7.994C214.108,143.664,213.093,144.086,212.032,144.086z M197.698,136.091h12.679
				l5.652-5.652v-18.331h-23.983v18.331L197.698,136.091z"/>
		</g>
		<g>
			<path fill="#3A3847" d="M220.026,128.097h-31.978c-2.209,0-3.997-1.788-3.997-3.998c0-2.209,1.788-3.997,3.997-3.997h31.978
				c2.209,0,3.997,1.788,3.997,3.997C224.023,126.31,222.235,128.097,220.026,128.097z"/>
		</g>
		<g>
			<path fill="#3A3847" d="M212.032,104.114c-1.023,0-2.046-0.391-2.826-1.171l-5.168-5.168l-5.168,5.168
				c-1.562,1.562-4.091,1.562-5.652,0c-1.561-1.562-1.561-4.091,0-5.652l7.995-7.994c1.561-1.562,4.091-1.562,5.652,0l7.995,7.994
				c1.562,1.562,1.562,4.091,0,5.652C214.077,103.724,213.054,104.114,212.032,104.114z"/>
		</g>
		<g>
			<path fill="#3A3847" d="M212.032,104.114c-2.209,0-3.997-1.788-3.997-3.997V76.134c0-2.209,1.788-3.998,3.997-3.998
				c2.209,0,3.997,1.788,3.997,3.998v23.983C216.029,102.326,214.241,104.114,212.032,104.114z"/>
		</g>
		<g>
			<path fill="#3A3847" d="M196.043,104.114c-2.209,0-3.997-1.788-3.997-3.997V76.134c0-2.209,1.788-3.998,3.997-3.998
				s3.997,1.788,3.997,3.998v23.983C200.04,102.326,198.252,104.114,196.043,104.114z"/>
		</g>
	</g>
</g>
</svg>
