<svg
        width="2440"
        height="2024"
        xmlns="http://www.w3.org/2000/svg"
      >
        <g
          id="Page-2"
          stroke="none"
          stroke-width="1"
          fill="none"
          fill-rule="evenodd"
        >
          <g id="Desktop-HD" fill="#000">
            <g id="Group" transform="translate(-355 -252)">
              <path
                id="Triangle"
                className="shard"
                transform="rotate(-44 527.5 810.922)"
                d="M507.647 789.002l273.353.855-234.46 42.984L274 789.857z"
              />
              <path
                id="Triangle-Copy"
                className="shard"
                transform="rotate(-44 810.5 373.038)"
                d="M964.585 334.002L1064 412.073l-159.164-36.436L557 412.073z"
              />
              <path
                id="Triangle-Copy-3"
                className="shard"
                transform="rotate(-22 1187.695 767.017)"
                d="M1188.166 768.729L891.32 918.444l192.188-108.171L1484.07 615.59z"
              />
              <path
                id="Triangle-Copy-17"
                className="shard"
                transform="rotate(-22 1570.52 828.427)"
                d="M1570.99 830.139l-296.845 149.715 192.187-108.17L1866.896 677z"
              />
              <path
                id="Triangle-Copy-11"
                className="shard"
                transform="rotate(-22 1850.695 441.015)"
                d="M1851.166 442.727L1554.32 592.442l192.188-108.171 400.563-194.683z"
              />
              <path
                id="Triangle-Copy-8"
                className="shard"
                transform="rotate(-22 749.84 1105.015)"
                d="M750.31 1106.727l-296.845 149.715 192.187-108.171 400.564-194.683z"
              />
              <path
                id="Triangle-Copy-21"
                className="shard"
                transform="rotate(-22 610.84 528.015)"
                d="M611.31 529.727L314.466 679.442 506.652 571.27l400.564-194.683z"
              />
              <path
                id="Triangle-Copy-12"
                className="shard"
                transform="rotate(-22 1412.84 779.013)"
                d="M1413.31 780.724L1116.466 930.44l192.187-108.171 400.564-194.684z"
              />
              <path
                id="Triangle-Copy-18"
                className="shard"
                transform="rotate(-22 1795.665 840.423)"
                d="M1796.136 842.135L1499.289 991.85l192.188-108.171 400.563-194.683z"
              />
              <path
                id="Triangle-Copy-20"
                className="shard"
                transform="rotate(-22 995.375 1137.43)"
                d="M995.846 1139.141L699 1288.856l192.188-108.17 400.563-194.684z"
              />
              <path
                id="Triangle-Copy-6"
                className="shard"
                transform="rotate(-22 1142.375 490.43)"
                d="M1142.846 492.141L846 641.856l192.188-108.17 400.563-194.684z"
              />
              <path
                className="shard"
                transform="rotate(-22 704.52 828.427)"
                d="M704.99 830.139L408.146 979.854l192.187-108.17L1000.896 677z"
              />
              <path
                id="Triangle-Copy-22"
                className="shard"
                transform="rotate(-22 332.375 664.43)"
                d="M332.846 666.141L36 815.856l192.188-108.17L628.75 513.001z"
              />
              <path
                id="Triangle-Copy-13"
                className="shard"
                transform="rotate(-22 1367.52 502.425)"
                d="M1367.99 504.137l-296.845 149.715 192.187-108.171 400.564-194.683z"
              />
              <path
                id="Triangle-Copy-7"
                className="shard"
                transform="rotate(-22 1020.375 577.43)"
                d="M1020.846 579.141L724 728.856l192.188-108.17 400.563-194.684z"
              />
              <path
                id="Triangle-Copy-14"
                className="shard"
                transform="rotate(-22 1683.375 251.427)"
                d="M1683.846 253.139L1387 402.854l192.188-108.17L1979.75 100z"
              />
              <path
                id="Triangle-Copy-10"
                className="shard"
                transform="rotate(-22 582.52 915.427)"
                d="M582.99 917.139l-296.845 149.715 192.187-108.17L878.896 764z"
              />
              <path
                id="Triangle-Copy-23"
                className="shard"
                transform="rotate(-22 486.375 355.43)"
                d="M486.846 357.141L190 506.856l192.188-108.17L782.75 204.001z"
              />
              <path
                id="Triangle-Copy-15"
                className="shard"
                transform="rotate(-22 1245.52 589.425)"
                d="M1245.99 591.137L949.146 740.852l192.187-108.171 400.564-194.683z"
              />
              <path
                id="Triangle-Copy-5"
                className="shard"
                transform="rotate(-87 1272.366 1096.101)"
                d="M1148.616 999.186l99.414 78.071 148.086 115.76-195.945-144.044z"
              />
              <path
                id="Triangle-Copy-19"
                className="shard"
                transform="rotate(-87 1655.19 1157.511)"
                d="M1531.44 1060.596l99.415 78.071 148.086 115.76-195.945-144.044z"
              />
              <path
                id="Triangle-Copy-4"
                className="shard"
                transform="rotate(-44 837.389 898.369)"
                d="M963.177 878.455l9.722 9.389-191.196 30.439-79.825-5.62z"
              />
              <path
                id="Triangle-Copy-16"
                className="shard"
                transform="rotate(-44 1500.389 572.367)"
                d="M1626.177 552.453l9.722 9.389-191.196 30.438-79.825-5.619z"
              />
            </g>
          </g>
        </g>
        </svg>